<?xml version="1.0" encoding="utf-8"?>
<!-- Generator: Adobe Illustrator 22.1.0, SVG Export Plug-In . SVG Version: 6.00 Build 0)  -->
<svg version="1.1" id="Layer_1" xmlns="http://www.w3.org/2000/svg" xmlns:xlink="http://www.w3.org/1999/xlink" x="0px" y="0px"
	 viewBox="0 0 400 400" style="enable-background:new 0 0 400 400;" xml:space="preserve">
<style type="text/css">
	.st0{fill:#FFFFFF;}
	.st1{fill:#8D4097;}
	.st2{fill:#FFC807;}
	.st3{fill:#A0CE62;}
	.st4{fill:#FFFFFF;stroke:#FFFFFF;stroke-miterlimit:10;}
	.st5{fill:#FFFFFF;stroke:#FFFFFF;stroke-width:2;stroke-miterlimit:10;}
</style>
<g>
	<circle class="st2" cx="200" cy="200" r="200"/>
	<circle class="st0" cx="237.7" cy="186.7" r="5.8"/>
	<g>
		<path class="st0" d="M247.6,234.4H244v-7.1c0-2.6-2.2-4.8-4.8-4.8s-4.8,2.2-4.8,4.8v11.9c0,2.6,2.2,4.8,4.8,4.8h8.4
			c2.6,0,4.8-2.2,4.8-4.8S250.2,234.4,247.6,234.4z"/>
		<path class="st0" d="M157.2,138.4H149c-12.2,0-22.2,10-22.2,22.2V251c0,12.2,10,22.2,22.2,22.2h44.4c2.6,0,4.8-2.2,4.8-4.8
			s-2.2-4.8-4.8-4.8H149c-6.9,0-12.6-5.7-12.6-12.6v-90.5c0-6.9,5.7-12.6,12.6-12.6h8.3v6.8c0,2.6,2.2,4.8,4.8,4.8s4.8-2.2,4.8-4.8
			V148h28.1v6.8c0,2.6,2.2,4.8,4.8,4.8s4.8-2.2,4.8-4.8V148h28.4v6.8c0,2.6,2.2,4.8,4.8,4.8s4.8-2.2,4.8-4.8V148h8.5
			c6.9,0,12.6,5.7,12.6,12.6v33.1c0,2.6,2.2,4.8,4.8,4.8s4.8-2.2,4.8-4.8v-33.1c0-12.2-10-22.2-22.2-22.2h-8.5v-6.8
			c0-2.6-2.2-4.8-4.8-4.8s-4.8,2.2-4.8,4.8v6.8h-28.4v-6.8c0-2.6-2.2-4.8-4.8-4.8s-4.8,2.2-4.8,4.8v6.8h-28.1v-6.8
			c0-2.6-2.2-4.8-4.8-4.8s-4.8,2.2-4.8,4.8V138.4z"/>
		<path class="st0" d="M239.2,205.1c-18.8,0-34.1,15.3-34.1,34.1s15.3,34.1,34.1,34.1s34.1-15.3,34.1-34.1S258,205.1,239.2,205.1z
			 M239.2,263.6c-13.5,0-24.5-11-24.5-24.5c0-13.5,11-24.5,24.5-24.5s24.5,11,24.5,24.5C263.6,252.7,252.7,263.6,239.2,263.6z"/>
	</g>
	<circle class="st0" cx="212.5" cy="186.7" r="5.8"/>
	<circle class="st0" cx="187.2" cy="211.9" r="5.8"/>
	<circle class="st0" cx="162" cy="186.7" r="5.8"/>
	<circle class="st0" cx="162" cy="211.9" r="5.8"/>
	<circle class="st0" cx="162" cy="237.1" r="5.8"/>
	<circle class="st0" cx="187.2" cy="237.1" r="5.8"/>
	<circle class="st0" cx="187.2" cy="186.7" r="5.8"/>
</g>
</svg>
