<?xml version="1.0" encoding="utf-8"?>
<!-- Generator: Adobe Illustrator 22.1.0, SVG Export Plug-In . SVG Version: 6.00 Build 0)  -->
<svg version="1.1" id="Layer_1" xmlns="http://www.w3.org/2000/svg" xmlns:xlink="http://www.w3.org/1999/xlink" x="0px" y="0px"
	 viewBox="0 0 400 400" style="enable-background:new 0 0 400 400;" xml:space="preserve">
<style type="text/css">
	.st0{fill:#FFFFFF;}
	.st1{fill:#8D4097;}
	.st2{fill:#FFC807;}
	.st3{fill:#A0CE62;}
	.st4{fill:#FFFFFF;stroke:#FFFFFF;stroke-miterlimit:10;}
	.st5{fill:#FFFFFF;stroke:#FFFFFF;stroke-width:2;stroke-miterlimit:10;}
</style>
<g>
	<circle class="st2" cx="200" cy="200" r="200"/>
	<g>
		<g>
			<path class="st0" d="M275.2,135.6h-13.9c-3.6,0.1-3.6,5.3,0,5.5h13.9c2.4,0,4.4,2,4.4,4.4v73.2c0,2.4-2,4.4-4.4,4.4H149.5
				c-2.4,0-4.4-2-4.4-4.4v-3.7h29.4c16.2-0.7,16.2-23.8,0-24.4h-29.4v-45.1c0-2.4,2-4.4,4.4-4.4h98.9c3.6-0.1,3.6-5.3,0-5.5h-20.9
				V124c0-9.5-7.8-17.3-17.3-17.3h-78c-9.5,0-17.3,7.8-17.3,17.3v34.7c0.1,3.6,5.3,3.6,5.5,0V124c0-6.5,5.3-11.8,11.8-11.8h78
				c6.5,0,11.8,5.3,11.8,11.8v11.7h-4V124c0-4.3-3.5-7.8-7.8-7.8h-14.6c-2,0-3.8,1.3-4.5,3.2l-1.8,5.1H153l-1.8-5.1
				c-0.7-1.9-2.5-3.2-4.5-3.2h-14.6c-4.3,0-7.8,3.5-7.8,7.8v152c0,4.3,3.5,7.8,7.8,7.8h78c4.3,0,7.8-3.5,7.8-7.8v-8.5
				c-0.1-3.6-5.3-3.6-5.5,0v8.5c0,1.3-1.1,2.4-2.4,2.4h-78c-1.3,0-2.4-1.1-2.4-2.4V124c0-1.3,1.1-2.4,2.4-2.4h14.1l1.8,5.1
				c0.7,1.9,2.5,3.2,4.5,3.2h37.4c2,0,3.8-1.3,4.5-3.2l1.8-5.1h14.1c1.3,0,2.4,1.1,2.4,2.4v11.7h-63c-5.5,0-9.9,4.4-9.9,9.9v73.2
				c0,5.5,4.4,9.9,9.9,9.9h63v43c0.1,3.6,5.3,3.6,5.5,0v-43h4V276c0,6.5-5.3,11.8-11.8,11.8h-78c-6.5,0-11.8-5.3-11.8-11.8V152.6
				c-0.1-3.6-5.3-3.6-5.5,0V276c0,9.5,7.8,17.3,17.3,17.3h78c9.5,0,17.3-7.8,17.3-17.3v-47.4h47.7c5.5,0,9.9-4.4,9.9-9.9v-73.2
				C285.1,140.1,280.7,135.6,275.2,135.6L275.2,135.6z M174.5,196.1c9,0.4,8.9,13.1,0,13.5h-29.4v-13.5H174.5z"/>
		</g>
	</g>
</g>
</svg>
