<?xml version="1.0" encoding="utf-8"?>
<!-- Generator: Adobe Illustrator 22.1.0, SVG Export Plug-In . SVG Version: 6.00 Build 0)  -->
<svg version="1.1" id="Layer_1" xmlns="http://www.w3.org/2000/svg" xmlns:xlink="http://www.w3.org/1999/xlink" x="0px" y="0px"
	 viewBox="0 0 400 400" style="enable-background:new 0 0 400 400;" xml:space="preserve">
<style type="text/css">
	.st0{fill:#FFFFFF;}
	.st1{fill:#8D4097;}
	.st2{fill:#FFC807;}
	.st3{fill:#A0CE62;}
	.st4{fill:#FFFFFF;stroke:#FFFFFF;stroke-miterlimit:10;}
	.st5{fill:#FFFFFF;stroke:#FFFFFF;stroke-width:2;stroke-miterlimit:10;}
</style>
<g>
	<circle class="st2" cx="200" cy="200" r="200"/>
	<g>
		<g id="surface1_1_">
			<path class="st0" d="M187.1,198.7h10.3v5.2h-10.3V198.7z"/>
			<path class="st0" d="M275.2,191l-17.5-2.5c-3.2-2-6.5-3.7-9.9-5.3c-11.3-5.1-23.6-7.8-36-7.7h-3c-14.6,0-29,3.7-41.9,10.7
				L158,191c-10.4,0.1-20.5,2.9-29.5,8c-3.7,2.1-5.9,6-5.9,10.2v15.3c0,1.4,1.2,2.6,2.6,2.6h8.7c2.8,8,11.6,12.3,19.7,9.5
				c4.4-1.6,7.9-5,9.5-9.5h68.9c2.8,8,11.6,12.3,19.7,9.5c4.4-1.6,7.9-5,9.5-9.5h0.9c0.3,0,0.7-0.1,1-0.2l8.4-3.4
				c3.7-1.5,6.2-5.1,6.2-9.1v-20.9C277.4,192.3,276.5,191.2,275.2,191z M158.5,224c-1.1,5.6-6.6,9.2-12.2,8c-5.6-1.1-9.2-6.6-8-12.2
				c1.1-5.6,6.6-9.2,12.2-8c4.8,1,8.3,5.2,8.3,10.1C158.7,222.7,158.6,223.4,158.5,224z M205.2,222h-41.3c0-8.6-6.9-15.5-15.5-15.5
				c-8.6,0-15.5,6.9-15.5,15.5h-5.2v-12.7c0-2.4,1.3-4.5,3.3-5.7c8.4-4.8,18-7.3,27.6-7.3h46.5V222z M205.2,191h-36.3l0.5-0.3
				c11-6,23.3-9.4,35.8-9.9V191z M210.3,180.7h1.5c10.4,0,20.7,2,30.4,5.8l-4.5,4.5h-27.3V180.7z M256.6,224
				c-1.1,5.6-6.6,9.2-12.2,8c-5.6-1.1-9.2-6.6-8-12.2c1.1-5.6,6.6-9.2,12.2-8c4.8,1,8.3,5.2,8.3,10.1
				C256.8,222.7,256.7,223.4,256.6,224z M272.3,198.7h-7.7v5.2h7.7v10.6c0,1.9-1.2,3.6-2.9,4.3l-7.4,3c0-0.2,0-0.5,0-0.7
				s0-0.5,0-0.8c0-0.3-0.1-0.5-0.1-0.8c0-0.3-0.1-0.5-0.1-0.8c-0.1-0.2-0.1-0.5-0.2-0.7c-0.1-0.2-0.1-0.5-0.2-0.7
				c-0.1-0.2-0.2-0.5-0.3-0.7c-0.1-0.2-0.2-0.5-0.3-0.7c-0.1-0.2-0.2-0.4-0.3-0.7s-0.2-0.5-0.3-0.7c-0.1-0.2-0.3-0.4-0.4-0.6
				c-0.1-0.2-0.3-0.4-0.4-0.7c-0.1-0.2-0.3-0.4-0.4-0.6c-0.1-0.2-0.3-0.4-0.5-0.6c-0.2-0.2-0.3-0.4-0.5-0.5
				c-0.2-0.2-0.3-0.4-0.5-0.6c-0.2-0.2-0.4-0.3-0.5-0.5c-0.2-0.2-0.4-0.3-0.6-0.5c-0.2-0.2-0.4-0.3-0.6-0.4
				c-0.2-0.1-0.4-0.3-0.6-0.4c-0.2-0.1-0.4-0.3-0.7-0.4c-0.2-0.1-0.4-0.3-0.6-0.4c-0.2-0.1-0.5-0.2-0.7-0.3
				c-0.2-0.1-0.4-0.2-0.6-0.3c-0.2-0.1-0.5-0.2-0.8-0.3c-0.3-0.1-0.4-0.2-0.6-0.2c-0.3-0.1-0.6-0.2-0.9-0.2c-0.2,0-0.4-0.1-0.6-0.1
				c-0.3-0.1-0.6-0.1-1-0.1c-0.2,0-0.4-0.1-0.6-0.1c-0.5-0.1-1-0.1-1.6-0.1c-8.5,0-15.5,6.9-15.5,15.5h-20.7v-25.8h28.4
				c0.7,0,1.3-0.3,1.8-0.8l6.7-6.7c2.8,1.3,5.5,2.8,8.2,4.5c0.3,0.2,0.6,0.3,1,0.4l15.9,2.3V198.7z"/>
		</g>
		<path class="st0" d="M314.3,125.3H85.7c-4.8,0-8.7,3.9-8.7,8.7V266c0,4.8,3.9,8.7,8.7,8.7h228.6c4.8,0,8.7-3.9,8.7-8.7V134
			C323,129.2,319.1,125.3,314.3,125.3z M306,265.8H85.8V134.2H306V265.8z M314.1,205.5c-3,0-5.5-2.5-5.5-5.5c0-3,2.5-5.5,5.5-5.5
			s5.5,2.5,5.5,5.5C319.6,203,317.2,205.5,314.1,205.5z"/>
		<path class="st0" d="M91.2,158L91.2,158c-1-1-1-2.5,0-3.5l15.9-15.9c1-1,2.5-1,3.5,0v0c1,1,1,2.5,0,3.5L94.7,158
			C93.7,159,92.1,159,91.2,158z"/>
		<path class="st0" d="M94.2,167.4L94.2,167.4c-1-1-1-2.5,0-3.5l22.3-22.3c1-1,2.5-1,3.5,0h0c1,1,1,2.5,0,3.5l-22.3,22.3
			C96.7,168.4,95.2,168.4,94.2,167.4z"/>
	</g>
</g>
</svg>
