<?xml version="1.0" encoding="utf-8"?>
<!-- Generator: Adobe Illustrator 22.1.0, SVG Export Plug-In . SVG Version: 6.00 Build 0)  -->
<svg version="1.1" id="Layer_1" xmlns="http://www.w3.org/2000/svg" xmlns:xlink="http://www.w3.org/1999/xlink" x="0px" y="0px"
	 viewBox="0 0 400 400" style="enable-background:new 0 0 400 400;" xml:space="preserve">
<style type="text/css">
	.st0{fill:#FFFFFF;}
	.st1{fill:#8D4097;}
	.st2{fill:#FFC807;}
	.st3{fill:#A0CE62;}
	.st4{fill:#FFFFFF;stroke:#FFFFFF;stroke-miterlimit:10;}
	.st5{fill:#FFFFFF;stroke:#FFFFFF;stroke-width:2;stroke-miterlimit:10;}
</style>
<g>
	<circle class="st2" cx="200" cy="200" r="200"/>
	<g>
		<g>
			<g>
				<g>
					<path class="st0" d="M260.6,252.4c0-5.7-3.5-10.5-8.4-12.6c1-1.9,1.6-4,1.6-6.3c0-7.5-6.1-13.6-13.6-13.6H222v-16.5
						c23.4-6.1,40.8-27.4,40.8-52.7c0-30-24.4-54.4-54.4-54.4c-7.5,0-14.8,1.5-21.6,4.5c-2.1,0.9-3.1,3.4-2.2,5.5
						c0.9,2.1,3.4,3.1,5.5,2.2c5.8-2.5,11.9-3.8,18.3-3.8c25.4,0,46,20.6,46,46s-20.6,46-46,46s-46-20.6-46-46
						c0-6.3,1.3-12.5,3.8-18.3c0.9-2.1-0.1-4.6-2.2-5.5c-2.1-0.9-4.6,0.1-5.5,2.2c-3,6.8-4.5,14.1-4.5,21.6
						c0,25.3,17.3,46.6,40.8,52.7v12.2H194c-12.3,0-23.9,5.1-32.2,14h-20.4c-1.1,0-2.2,0.4-3,1.2c-0.8,0.8-1.2,1.8-1.2,3l0,51.8
						c0,2.3,1.9,4.2,4.2,4.2h20.4c8.4,8.9,20,14,32.2,14l42.9,0c7.5,0,13.6-6.1,13.6-13.6c0-2.3-0.6-4.5-1.6-6.5
						c4.8-2.1,8.1-6.9,8.1-12.4c0-2.8-0.9-5.5-2.4-7.7C258.2,261.2,260.6,257.1,260.6,252.4L260.6,252.4z M208.3,205.1
						c1.8,0,3.5-0.1,5.3-0.3v15h-10.5v-0.1v-14.9C204.8,205,206.6,205.1,208.3,205.1L208.3,205.1z M246.9,257.7h-3.6
						c-2.3,0-4.2,1.9-4.2,4.2c0,2.3,1.9,4.2,4.2,4.2c2.9,0,5.3,2.4,5.3,5.3s-2.4,5.3-5.3,5.3h-6.4c-2.3,0-4.2,1.9-4.2,4.2
						c0,2.3,1.9,4.2,4.2,4.2c2.9,0,5.3,2.4,5.3,5.3c0,2.9-2.4,5.3-5.3,5.3l-42.9,0c-10.4,0-20.3-4.6-27.2-12.6
						c-0.8-0.9-2-1.5-3.2-1.5h-18.1l0-43.5h18.1c1.2,0,2.4-0.5,3.2-1.5c6.8-8,16.7-12.6,27.2-12.6h0.7v0.1c0,2.3,1.9,4.2,4.2,4.2
						h41.2c2.9,0,5.3,2.4,5.3,5.3c0,2.9-2.4,5.3-5.3,5.3c-2.3,0-4.2,1.9-4.2,4.2s1.9,4.2,4.2,4.2h6.8c2.9,0,5.3,2.4,5.3,5.3
						C252.2,255.3,249.8,257.7,246.9,257.7L246.9,257.7z"/>
					<path class="st0" d="M194.7,169.8c2.4,2.4,5.7,3.7,8.9,3.7c3.2,0,6.4-1.2,8.9-3.7l20.4-20.4c4.9-4.9,4.9-12.9,0-17.7
						c-4.9-4.9-12.9-4.9-17.7,0l-11.5,11.5l-2-2c-4.9-4.9-12.9-4.9-17.7,0c-2.4,2.4-3.7,5.5-3.7,8.9s1.3,6.5,3.7,8.9L194.7,169.8z
						 M189.7,147.1c0.8-0.8,1.9-1.2,3-1.2s2.1,0.4,3,1.2l4.9,4.9c1.6,1.6,4.3,1.6,5.9,0l14.5-14.5c1.6-1.6,4.3-1.6,5.9,0
						c0.8,0.8,1.2,1.8,1.2,3c0,1.1-0.4,2.2-1.2,3l-20.4,20.4c-1.6,1.6-4.3,1.6-5.9,0L189.7,153c-0.8-0.8-1.2-1.8-1.2-3
						S189,147.9,189.7,147.1L189.7,147.1z"/>
					<path class="st0" d="M172.8,119.4c1.1,0,2.1-0.4,3-1.2c1.6-1.6,1.6-4.3,0-5.9c-1.6-1.6-4.3-1.6-5.9,0l0,0
						c-1.6,1.6-1.6,4.3,0,5.9C170.7,119,171.8,119.4,172.8,119.4z"/>
				</g>
			</g>
			<path class="st0" d="M208.4,96.2c-30,0-54.4,24.3-54.4,54.4c0,30,24.3,54.4,54.4,54.4s54.4-24.3,54.4-54.4
				C262.8,120.5,238.4,96.2,208.4,96.2z M208.4,196.6c-25.4,0-46-20.6-46-46s20.6-46,46-46s46,20.6,46,46S233.8,196.6,208.4,196.6z"
				/>
		</g>
		<path class="st0" d="M135.2,299.9h-9.7c-2.7,0-4.9-2.2-4.9-4.9v-70.9c0-2.7,2.2-4.9,4.9-4.9h9.7c2.7,0,4.9,2.2,4.9,4.9V295
			C140.1,297.7,137.9,299.9,135.2,299.9z"/>
	</g>
</g>
</svg>
