<?xml version="1.0" encoding="utf-8"?>
<!-- Generator: Adobe Illustrator 22.1.0, SVG Export Plug-In . SVG Version: 6.00 Build 0)  -->
<svg version="1.1" id="Layer_1" xmlns="http://www.w3.org/2000/svg" xmlns:xlink="http://www.w3.org/1999/xlink" x="0px" y="0px"
	 viewBox="0 0 400 400" style="enable-background:new 0 0 400 400;" xml:space="preserve">
<style type="text/css">
	.st0{fill:#FFFFFF;}
	.st1{fill:#8D4097;}
	.st2{fill:#FFC807;}
	.st3{fill:#A0CE62;}
	.st4{fill:#FFFFFF;stroke:#FFFFFF;stroke-miterlimit:10;}
	.st5{fill:#FFFFFF;stroke:#FFFFFF;stroke-width:2;stroke-miterlimit:10;}
</style>
<g>
	<circle class="st2" cx="200" cy="200" r="200"/>
	<g>
		<path class="st0" d="M225.5,227.6c-18.7,0-33.9,15.2-33.9,33.9s15.2,33.9,33.9,33.9s33.9-15.2,33.9-33.9S244.2,227.6,225.5,227.6z
			 M225.5,287.7c-14.5,0-26.3-11.8-26.3-26.3c0-14.5,11.8-26.3,26.3-26.3s26.3,11.8,26.3,26.3C251.8,275.9,240,287.7,225.5,287.7z"
			/>
		<path class="st0" d="M281.4,196.7C281.3,196.7,281.3,196.7,281.4,196.7l-77-63.3c-2.9-2.4-6.4-3.6-10.2-3.8l-42.3-0.8
			c-7.2-0.1-14.1,2.5-19.4,7.3l-13.2-10.9c-1.7-1.4-4.2-1.1-5.6,0.5c-1.4,1.7-1.1,4.2,0.5,5.6l13.2,10.9c-3.7,6.1-5,13.5-3.4,20.5
			l8.9,41.4c0.8,3.6,2.8,6.9,5.6,9.2l47.7,39.2c0.6-2.8,1.6-5.5,2.7-8.1l-45.4-37.3c-1.5-1.2-2.5-2.9-2.9-4.8l-9-41.4
			c-1-4.6-0.4-9.5,1.9-13.7l17.9,14.7c-5,9.6-1.3,21.4,8.2,26.4c9.6,5,21.4,1.3,26.4-8.2c5-9.6,1.3-21.4-8.2-26.4
			c-6.9-3.6-15.3-2.8-21.4,2.1l-17.9-14.7c1.3-1.1,2.7-1.9,4.2-2.7c2.7-1.3,5.7-1.9,8.8-1.8l42.3,0.7c1.9,0,3.8,0.7,5.3,1.9
			l76.9,63.2h0c3.6,3,4,8.2,1,11.8L258.1,238c1.7,2.3,3.1,4.8,4.2,7.4l21.1-25.7C289.2,212.8,288.3,202.5,281.4,196.7z M160,164
			c4.1-5,11.4-5.7,16.3-1.6c5,4.1,5.7,11.4,1.6,16.3c-4.1,5-11.4,5.7-16.3,1.6C156.7,176.3,155.9,168.9,160,164z"/>
		<polygon class="st0" points="236,249.6 221.9,263.6 215,256.7 210.2,261.6 217.1,268.5 217.1,268.5 221.9,273.3 240.8,254.4 		"/>
	</g>
</g>
</svg>
